<svg id="Layer_1" data-name="Layer 1" xmlns="http://www.w3.org/2000/svg" viewBox="0 0 489 93.61"><defs><style>.cls-1{fill:#455560;}.cls-2{fill:#f8761f;}.cls-3{fill:#fff;}</style></defs><title>crankshaft-horz-notag</title><path class="cls-1" d="M128.65,35.15v8.31a13.78,13.78,0,0,0-4.29-3.25,13.38,13.38,0,0,0-5.1-1.33A7.44,7.44,0,0,0,115.38,40a9,9,0,0,0-3,3.07,8.14,8.14,0,0,0,0,8.31,8.48,8.48,0,0,0,3,3,7.74,7.74,0,0,0,4,1.09,12.6,12.6,0,0,0,5.12-1.24A14.07,14.07,0,0,0,128.74,51l-.13,8.36a15,15,0,0,1-9.05,3.38,17.12,17.12,0,0,1-6.34-1.18,18,18,0,0,1-5.44-3.36,14.32,14.32,0,0,1-4.72-11,14.32,14.32,0,0,1,4.72-11,17.81,17.81,0,0,1,5.48-3.43,17.27,17.27,0,0,1,6.39-1.2A14.58,14.58,0,0,1,128.65,35.15Z"/><path class="cls-1" d="M139.81,32.28h13.58a10.79,10.79,0,0,1,5.38,1.37,10.19,10.19,0,0,1,3.9,3.75,9.78,9.78,0,0,1,1.44,5.16,9.49,9.49,0,0,1-1,4.1,10.17,10.17,0,0,1-2.61,3.45,5.55,5.55,0,0,1-3.64,1.41L166,62.15H158l-7.37-9.3h-3.09l.43,9.3h-8.14Zm12.25,13.63a3.52,3.52,0,0,0,2.58-.93,3.47,3.47,0,0,0,.94-2.59,3.2,3.2,0,0,0-.82-2.29,2.61,2.61,0,0,0-2-.88h-5.23v6.69Z"/><path class="cls-1" d="M185.59,62.15h-8.48l16.54-31.89L210.2,62.15h-8.49l-3.21-6.47h-9.69Zm8.06-18.39-3.38,6.9H197Z"/><path class="cls-1" d="M229.07,62.15h-7.8l.21-31.07,19.16,16.58.43-15.38h8l.26,31.07L229.07,47.06Z"/><path class="cls-1" d="M268.51,62.15h-8.14V32.28h8.14v16.8L278,32.28h9.78l-11.1,18.21,11.57,11.66H278.16l-9.65-9.69Z"/><path class="cls-1" d="M299.73,51.44A16.9,16.9,0,0,0,311,55.29a6.66,6.66,0,0,0,3-.53,1.55,1.55,0,0,0,0-2.9,23.47,23.47,0,0,0-4-1.45l-.94-.26a27.87,27.87,0,0,1-4.63-1.69,8.57,8.57,0,0,1-3.21-2.77,8.34,8.34,0,0,1-1.72-5.27,7.6,7.6,0,0,1,1.61-4.59,9.49,9.49,0,0,1,4.05-2.93,14.92,14.92,0,0,1,5.57-1,18.64,18.64,0,0,1,9.43,2.31l-.26,7.59a14.63,14.63,0,0,0-9-2.66c-2.37,0-3.58.5-3.64,1.5a1.54,1.54,0,0,0,.51,1.08,5.17,5.17,0,0,0,1.5.94,14.45,14.45,0,0,0,1.72.68l2.18.6,2,.56a13.36,13.36,0,0,1,6,3.39,9.12,9.12,0,0,1-1.35,12.39c-2,1.54-4.76,2.31-8.36,2.31-.72,0-1.17,0-1.37,0a22.81,22.81,0,0,1-10.76-3Z"/><path class="cls-1" d="M342.17,62.15H334V32.28h8.14l-.34,11,11.14.13.43-11.1h8.14V62.15H353.4l.34-11.36-11.14-.13Z"/><path class="cls-1" d="M381.1,62.15h-8.49l16.55-31.89L405.7,62.15h-8.48L394,55.68h-9.69Zm8.06-18.39-3.39,6.9h6.78Z"/><path class="cls-1" d="M424.92,62.15h-8.15V32.28h21.61v7.33H424.92v5.48h8.78V52h-8.78Z"/><path class="cls-1" d="M465.65,62.15H457.5V39.65h-8.05V32.28h24.09v7.37h-7.89Z"/><rect class="cls-2" x="15.46" y="16.85" width="75.86" height="59.91"/><rect class="cls-3" x="28.48" y="46.56" width="4.83" height="13.05" rx="1.58"/><rect class="cls-3" x="34.93" y="30.62" width="6.76" height="32.37" rx="1.58"/><rect class="cls-3" x="43.32" y="35.45" width="3.87" height="8.21" rx="1.58"/><rect class="cls-3" x="48.8" y="30.62" width="6.76" height="32.37" rx="1.58"/><rect class="cls-3" x="57.19" y="46.56" width="6.76" height="12.56" rx="1.58"/><rect class="cls-3" x="65.58" y="30.62" width="6.76" height="32.37" rx="1.58"/><rect class="cls-3" x="73.97" y="35.93" width="4.35" height="6.76" rx="1.58"/></svg>