<svg id="Layer_1" data-name="Layer 1" xmlns="http://www.w3.org/2000/svg" viewBox="0 0 230 220"><defs><style>.cls-1{fill:#f8761f;}.cls-2{fill:#fff;}.cls-3{fill:#455560;}</style></defs><title>crankshaft-stack</title><rect class="cls-1" x="24.32" y="21.75" width="181.35" height="143.21"/><rect class="cls-2" x="55.43" y="92.78" width="11.55" height="31.19" rx="3.77"/><rect class="cls-2" x="70.86" y="54.66" width="16.17" height="77.4" rx="3.77"/><rect class="cls-2" x="90.91" y="66.21" width="9.24" height="19.64" rx="3.77"/><rect class="cls-2" x="104.03" y="54.66" width="16.17" height="77.4" rx="3.77"/><rect class="cls-2" x="124.08" y="92.78" width="16.17" height="30.03" rx="3.77"/><rect class="cls-2" x="144.13" y="54.66" width="16.17" height="77.4" rx="3.77"/><rect class="cls-2" x="164.18" y="67.36" width="10.4" height="16.17" rx="3.77"/><path class="cls-3" d="M36.85,184.45v4.07a6.83,6.83,0,0,0-2.1-1.6,6.66,6.66,0,0,0-2.5-.65,3.58,3.58,0,0,0-1.89.56,4.25,4.25,0,0,0-1.48,1.5,3.87,3.87,0,0,0-.57,2,3.91,3.91,0,0,0,.56,2,4.25,4.25,0,0,0,1.46,1.46,3.86,3.86,0,0,0,2,.53,6.18,6.18,0,0,0,2.5-.61,6.84,6.84,0,0,0,2.11-1.57l-.06,4.09A7.29,7.29,0,0,1,32.4,198a8.25,8.25,0,0,1-3.1-.58,8.63,8.63,0,0,1-2.67-1.65,7.4,7.4,0,0,1,0-10.74,8.58,8.58,0,0,1,2.69-1.68,8.44,8.44,0,0,1,3.12-.59A7.15,7.15,0,0,1,36.85,184.45Z"/><path class="cls-3" d="M42.31,183H49a5.28,5.28,0,0,1,2.63.67,5,5,0,0,1,1.91,1.84,4.79,4.79,0,0,1,.71,2.53,4.56,4.56,0,0,1-.49,2,4.82,4.82,0,0,1-1.28,1.69,2.7,2.7,0,0,1-1.78.69l4.49,5.2H51.21l-3.61-4.55H46.09l.21,4.55h-4Zm6,6.67a1.74,1.74,0,0,0,1.26-.45A1.68,1.68,0,0,0,50,188a1.57,1.57,0,0,0-.4-1.12,1.26,1.26,0,0,0-1-.43H46.09v3.27Z"/><path class="cls-3" d="M64.72,197.66H60.57l8.1-15.61,8.1,15.61H72.61L71,194.5H66.3Zm4-9L67,192h3.32Z"/><path class="cls-3" d="M86,197.66H82.19l.1-15.21,9.38,8.12.21-7.53h3.9l.13,15.21-9.9-8Z"/><path class="cls-3" d="M105.31,197.66h-4V183h4v8.22L110,183h4.78L109.3,192l5.67,5.7H110l-4.72-4.74Z"/><path class="cls-3" d="M120.59,192.42a8.29,8.29,0,0,0,5.52,1.89,3.15,3.15,0,0,0,1.47-.27.79.79,0,0,0,.5-.74.81.81,0,0,0-.48-.67,10.45,10.45,0,0,0-2-.71l-.46-.13a13.55,13.55,0,0,1-2.27-.83,4.21,4.21,0,0,1-1.57-1.35,4.12,4.12,0,0,1-.84-2.58,3.72,3.72,0,0,1,.79-2.25,4.59,4.59,0,0,1,2-1.44,7.45,7.45,0,0,1,2.73-.49A9.13,9.13,0,0,1,130.6,184l-.12,3.72a7.17,7.17,0,0,0-4.41-1.3c-1.16,0-1.76.24-1.78.73a.75.75,0,0,0,.25.53,2.55,2.55,0,0,0,.73.46,7.21,7.21,0,0,0,.84.33l1.07.3,1,.27a6.46,6.46,0,0,1,2.92,1.66,4.43,4.43,0,0,1-.66,6.06,6.46,6.46,0,0,1-4.09,1.13,5,5,0,0,1-.67,0,11.18,11.18,0,0,1-5.27-1.44Z"/><path class="cls-3" d="M141.37,197.66h-4V183h4l-.17,5.37,5.46.06.21-5.43h4v14.62h-4l.17-5.56-5.46-.06Z"/><path class="cls-3" d="M160.43,197.66h-4.16l8.1-15.61,8.1,15.61h-4.15l-1.58-3.16H162Zm3.94-9L162.71,192H166Z"/><path class="cls-3" d="M181.88,197.66h-4V183h10.58v3.59h-6.59v2.68h4.3v3.38h-4.3Z"/><path class="cls-3" d="M201.82,197.66h-4v-11h-4V183h11.8v3.61h-3.86Z"/></svg>