<svg id="Layer_1" data-name="Layer 1" xmlns="http://www.w3.org/2000/svg" viewBox="0 0 489 93.61"><defs><style>.cls-1{fill:#455560;}.cls-2{fill:#f8761f;}.cls-3{fill:#fff;}</style></defs><title>crankshaft-horz</title><path class="cls-1" d="M128.65,25.14v8.31a13.78,13.78,0,0,0-4.29-3.25,13.57,13.57,0,0,0-5.1-1.33A7.44,7.44,0,0,0,115.38,30a9,9,0,0,0-3,3.07,7.93,7.93,0,0,0-1.15,4.16,7.84,7.84,0,0,0,1.13,4.15,8.48,8.48,0,0,0,3,3,7.75,7.75,0,0,0,4,1.1,12.78,12.78,0,0,0,5.12-1.25A14.07,14.07,0,0,0,128.74,41l-.13,8.36a15,15,0,0,1-9.05,3.38,17.12,17.12,0,0,1-6.34-1.18,17.77,17.77,0,0,1-5.44-3.36,14.32,14.32,0,0,1-4.72-11,14.34,14.34,0,0,1,4.72-11,17.81,17.81,0,0,1,5.48-3.43,17.27,17.27,0,0,1,6.39-1.2A14.63,14.63,0,0,1,128.65,25.14Z"/><path class="cls-1" d="M139.81,22.27h13.58a10.79,10.79,0,0,1,5.38,1.37,10.19,10.19,0,0,1,3.9,3.75,9.81,9.81,0,0,1,1.44,5.16,9.49,9.49,0,0,1-1,4.1,10.17,10.17,0,0,1-2.61,3.45,5.55,5.55,0,0,1-3.64,1.41L166,52.14H158l-7.37-9.3h-3.09l.43,9.3h-8.14ZM152.06,35.9a3.55,3.55,0,0,0,2.58-.92,3.51,3.51,0,0,0,.94-2.6,3.22,3.22,0,0,0-.82-2.29,2.61,2.61,0,0,0-2-.88h-5.23V35.9Z"/><path class="cls-1" d="M185.59,52.14h-8.48l16.54-31.89L210.2,52.14h-8.49l-3.21-6.47h-9.69Zm8.06-18.39-3.38,6.91H197Z"/><path class="cls-1" d="M229.07,52.14h-7.8l.21-31.07,19.16,16.59.43-15.39h8l.26,31.07L229.07,37.06Z"/><path class="cls-1" d="M268.51,52.14h-8.14V22.27h8.14v16.8L278,22.27h9.78l-11.1,18.21,11.57,11.66H278.16l-9.65-9.68Z"/><path class="cls-1" d="M299.73,41.43A16.9,16.9,0,0,0,311,45.28a6.66,6.66,0,0,0,3-.53,1.54,1.54,0,0,0,0-2.89,23.26,23.26,0,0,0-4-1.46l-.94-.26a27.87,27.87,0,0,1-4.63-1.69,8.57,8.57,0,0,1-3.21-2.77,8.34,8.34,0,0,1-1.72-5.27,7.6,7.6,0,0,1,1.61-4.59,9.49,9.49,0,0,1,4.05-2.93,14.92,14.92,0,0,1,5.57-1,18.55,18.55,0,0,1,9.43,2.32l-.26,7.58a14.63,14.63,0,0,0-9-2.65c-2.37,0-3.58.5-3.64,1.5a1.53,1.53,0,0,0,.51,1.07,5.17,5.17,0,0,0,1.5.94,15.79,15.79,0,0,0,1.72.69l2.18.6,2,.55a13.36,13.36,0,0,1,6,3.39A8.52,8.52,0,0,1,323,43.7a8.46,8.46,0,0,1-3.17,6.56c-2,1.54-4.76,2.31-8.36,2.31a12.76,12.76,0,0,1-1.37,0,22.81,22.81,0,0,1-10.76-3Z"/><path class="cls-1" d="M342.17,52.14H334V22.27h8.14l-.34,11,11.14.13.43-11.1h8.14V52.14H353.4l.34-11.36-11.14-.12Z"/><path class="cls-1" d="M381.1,52.14h-8.49l16.55-31.89L405.7,52.14h-8.48L394,45.67h-9.69Zm8.06-18.39-3.39,6.91h6.78Z"/><path class="cls-1" d="M424.92,52.14h-8.15V22.27h21.61V29.6H424.92v5.48h8.78V42h-8.78Z"/><path class="cls-1" d="M465.65,52.14H457.5V29.64h-8.05V22.27h24.09v7.37h-7.89Z"/><path class="cls-1" d="M113.47,70.53h-1.24a.56.56,0,0,1-.35-.1.67.67,0,0,1-.19-.28l-1.11-2.85h-5.3l-1.1,2.85a.7.7,0,0,1-.19.27.58.58,0,0,1-.35.11H102.4l4.73-11.81h1.61Zm-7.74-4.38h4.41l-1.86-4.81c-.06-.14-.12-.31-.18-.49s-.11-.39-.17-.6c-.06.21-.11.41-.17.6s-.12.36-.18.5Z"/><path class="cls-1" d="M114.41,70.53V62.18h.89a.36.36,0,0,1,.38.31l.12.9a4.7,4.7,0,0,1,1.22-1,3.16,3.16,0,0,1,1.56-.37,3,3,0,0,1,1.2.23,2.36,2.36,0,0,1,.88.64,2.9,2.9,0,0,1,.53,1,4.39,4.39,0,0,1,.18,1.3v5.31h-1.48V65.22a2.25,2.25,0,0,0-.43-1.48,1.64,1.64,0,0,0-1.31-.52,2.61,2.61,0,0,0-1.23.31,4.09,4.09,0,0,0-1,.85v6.15Z"/><path class="cls-1" d="M130.82,62.05a4.15,4.15,0,0,1,1.65.31,3.58,3.58,0,0,1,1.26.86,3.81,3.81,0,0,1,.79,1.36,5.77,5.77,0,0,1,0,3.55,3.9,3.9,0,0,1-.79,1.36,3.58,3.58,0,0,1-1.26.86,4.33,4.33,0,0,1-1.65.3,4.42,4.42,0,0,1-1.66-.3,3.45,3.45,0,0,1-1.25-.86,3.92,3.92,0,0,1-.8-1.36,5.77,5.77,0,0,1,0-3.55,3.83,3.83,0,0,1,.8-1.36,3.45,3.45,0,0,1,1.25-.86A4.23,4.23,0,0,1,130.82,62.05Zm0,7.45a2.13,2.13,0,0,0,1.85-.83,4.7,4.7,0,0,0,0-4.63,2.14,2.14,0,0,0-1.85-.84,2.65,2.65,0,0,0-1.09.22A2,2,0,0,0,129,64a2.67,2.67,0,0,0-.46,1,5,5,0,0,0-.16,1.33,3.8,3.8,0,0,0,.62,2.31A2.15,2.15,0,0,0,130.82,69.5Z"/><path class="cls-1" d="M136.39,73.36V62.18h.88a.36.36,0,0,1,.39.31l.12,1a4.36,4.36,0,0,1,1.23-1,3.17,3.17,0,0,1,1.58-.4,3.07,3.07,0,0,1,1.31.28,2.71,2.71,0,0,1,1,.82,3.79,3.79,0,0,1,.63,1.34,6.73,6.73,0,0,1,.23,1.83,5.91,5.91,0,0,1-.25,1.72,4.1,4.1,0,0,1-.71,1.38,3.35,3.35,0,0,1-2.65,1.25,3.14,3.14,0,0,1-1.32-.26,3.07,3.07,0,0,1-1-.72v3.69Zm3.72-10.14a2.36,2.36,0,0,0-1.25.33,3.77,3.77,0,0,0-1,.93v4a2.41,2.41,0,0,0,.88.77,2.51,2.51,0,0,0,1.08.22,2.1,2.1,0,0,0,1.79-.83,3.9,3.9,0,0,0,.63-2.38,6.3,6.3,0,0,0-.14-1.4,2.84,2.84,0,0,0-.42-1,1.62,1.62,0,0,0-.67-.55A2.29,2.29,0,0,0,140.11,63.22Z"/><path class="cls-1" d="M148.79,62.05a3.64,3.64,0,0,1,1.38.25,3.11,3.11,0,0,1,1.11.73A3.28,3.28,0,0,1,152,64.2a4.55,4.55,0,0,1,.26,1.58,1,1,0,0,1-.07.47.33.33,0,0,1-.28.11h-5.58a4.66,4.66,0,0,0,.21,1.38,2.62,2.62,0,0,0,.55,1,2.08,2.08,0,0,0,.82.59,2.83,2.83,0,0,0,1.07.19,3.28,3.28,0,0,0,.95-.12,4.68,4.68,0,0,0,.69-.28,4.74,4.74,0,0,0,.48-.28.67.67,0,0,1,.34-.12.31.31,0,0,1,.28.14l.41.53a2.75,2.75,0,0,1-.65.57,3.4,3.4,0,0,1-.81.4,4.59,4.59,0,0,1-.9.24,5.69,5.69,0,0,1-.91.08,4.38,4.38,0,0,1-1.6-.29A3.77,3.77,0,0,1,146,69.5a4,4,0,0,1-.83-1.4,5.6,5.6,0,0,1-.29-1.91,5.06,5.06,0,0,1,.26-1.63,3.93,3.93,0,0,1,.77-1.32,3.62,3.62,0,0,1,1.23-.87A4.1,4.1,0,0,1,148.79,62.05Zm0,1.08a2.27,2.27,0,0,0-1.67.61,2.89,2.89,0,0,0-.76,1.71H151a3.09,3.09,0,0,0-.14-.94,2.18,2.18,0,0,0-.42-.73,1.88,1.88,0,0,0-.67-.48A2.37,2.37,0,0,0,148.82,63.13Z"/><path class="cls-1" d="M153.81,70.53V62.18h.88a.35.35,0,0,1,.38.31l.12.9a4.7,4.7,0,0,1,1.22-1,3.16,3.16,0,0,1,1.56-.37,3.07,3.07,0,0,1,1.21.23,2.32,2.32,0,0,1,.87.64,2.9,2.9,0,0,1,.53,1,4.39,4.39,0,0,1,.18,1.3v5.31h-1.47V65.22a2.25,2.25,0,0,0-.44-1.48,1.61,1.61,0,0,0-1.31-.52,2.54,2.54,0,0,0-1.22.31,4,4,0,0,0-1,.85v6.15Z"/><path class="cls-1" d="M171.56,63.56a.33.33,0,0,1-.3.18.6.6,0,0,1-.29-.09l-.38-.2a3.59,3.59,0,0,0-.54-.21,2.68,2.68,0,0,0-.74-.09,2.31,2.31,0,0,0-.67.09,1.88,1.88,0,0,0-.51.26,1.27,1.27,0,0,0-.32.38,1.13,1.13,0,0,0-.11.48.75.75,0,0,0,.19.53,1.6,1.6,0,0,0,.49.38,4.52,4.52,0,0,0,.69.27l.8.26c.27.09.53.19.79.3a2.93,2.93,0,0,1,.69.41,1.72,1.72,0,0,1,.49.61A1.74,1.74,0,0,1,172,68a2.64,2.64,0,0,1-.21,1.06,2.23,2.23,0,0,1-.61.85,2.89,2.89,0,0,1-1,.57,4,4,0,0,1-1.35.2,4.19,4.19,0,0,1-1.58-.28,4,4,0,0,1-1.2-.73l.34-.56a.49.49,0,0,1,.16-.16.41.41,0,0,1,.23-.06.58.58,0,0,1,.31.11l.4.26a2.88,2.88,0,0,0,.58.25,2.49,2.49,0,0,0,.84.12,2.47,2.47,0,0,0,.75-.11,1.79,1.79,0,0,0,.53-.3,1.13,1.13,0,0,0,.32-.44,1.32,1.32,0,0,0,.1-.53.88.88,0,0,0-.18-.57,1.76,1.76,0,0,0-.49-.39,5.1,5.1,0,0,0-.7-.28l-.8-.25c-.27-.09-.54-.19-.8-.3A2.65,2.65,0,0,1,167,66a1.88,1.88,0,0,1-.5-.64,2.08,2.08,0,0,1-.18-.91,2.23,2.23,0,0,1,.2-.91,2.19,2.19,0,0,1,.57-.78,3,3,0,0,1,.94-.53,3.7,3.7,0,0,1,1.26-.2,4.07,4.07,0,0,1,1.48.26,3.55,3.55,0,0,1,1.13.71Z"/><path class="cls-1" d="M177.09,62.05a4.15,4.15,0,0,1,1.65.31,3.45,3.45,0,0,1,1.25.86,3.83,3.83,0,0,1,.8,1.36,6,6,0,0,1,0,3.55,3.92,3.92,0,0,1-.8,1.36,3.45,3.45,0,0,1-1.25.86,4.33,4.33,0,0,1-1.65.3,4.38,4.38,0,0,1-1.66-.3,3.58,3.58,0,0,1-1.26-.86,3.9,3.9,0,0,1-.79-1.36,5.77,5.77,0,0,1,0-3.55,3.81,3.81,0,0,1,.79-1.36,3.58,3.58,0,0,1,1.26-.86A4.2,4.2,0,0,1,177.09,62.05Zm0,7.45a2.13,2.13,0,0,0,1.85-.83,4.7,4.7,0,0,0,0-4.63,2.14,2.14,0,0,0-1.85-.84,2.61,2.61,0,0,0-1.09.22,2,2,0,0,0-.78.62,2.83,2.83,0,0,0-.46,1,5.41,5.41,0,0,0-.15,1.33,3.87,3.87,0,0,0,.61,2.31A2.17,2.17,0,0,0,177.09,69.5Z"/><path class="cls-1" d="M184,62.18v5.33a2.19,2.19,0,0,0,.43,1.46,1.62,1.62,0,0,0,1.33.52,2.58,2.58,0,0,0,1.21-.3,3.6,3.6,0,0,0,1-.85V62.18h1.47v8.35h-.87a.38.38,0,0,1-.4-.3l-.11-.9a4.87,4.87,0,0,1-1.22,1,3.25,3.25,0,0,1-1.55.36,3,3,0,0,1-1.21-.22,2.47,2.47,0,0,1-.88-.64,2.9,2.9,0,0,1-.53-1,4.37,4.37,0,0,1-.18-1.29V62.18Z"/><path class="cls-1" d="M191.58,70.53V62.18h.84a.47.47,0,0,1,.33.09.64.64,0,0,1,.13.32l.09,1.27a3.69,3.69,0,0,1,1-1.34,2.11,2.11,0,0,1,1.42-.49,2.07,2.07,0,0,1,.5.06,1.45,1.45,0,0,1,.44.18l-.11,1.1a.24.24,0,0,1-.25.21,2,2,0,0,1-.34,0,1.88,1.88,0,0,0-.5-.05,2,2,0,0,0-.71.12,1.64,1.64,0,0,0-.55.34,2.27,2.27,0,0,0-.44.56,4.93,4.93,0,0,0-.34.76v5.27Z"/><path class="cls-1" d="M202.79,63.67a.89.89,0,0,1-.13.14.3.3,0,0,1-.18,0,.5.5,0,0,1-.27-.11,3.62,3.62,0,0,0-.37-.22,2.5,2.5,0,0,0-1.31-.33,2.47,2.47,0,0,0-1.09.22,1.94,1.94,0,0,0-.79.63,2.86,2.86,0,0,0-.48,1,4.85,4.85,0,0,0-.16,1.31,5,5,0,0,0,.17,1.35,2.88,2.88,0,0,0,.5,1,2,2,0,0,0,.76.61,2.37,2.37,0,0,0,1,.21,2.44,2.44,0,0,0,.88-.13,2.61,2.61,0,0,0,.58-.28c.15-.11.27-.2.37-.29a.53.53,0,0,1,.31-.12.31.31,0,0,1,.28.14l.41.53a2.83,2.83,0,0,1-.62.58,3.84,3.84,0,0,1-.75.4,3.77,3.77,0,0,1-.83.23,5.26,5.26,0,0,1-.89.08,3.73,3.73,0,0,1-1.46-.29,3.2,3.2,0,0,1-1.16-.84,3.91,3.91,0,0,1-.78-1.34,5.5,5.5,0,0,1-.28-1.83,5.59,5.59,0,0,1,.26-1.72,3.84,3.84,0,0,1,.76-1.36,3.38,3.38,0,0,1,1.23-.9,4.5,4.5,0,0,1,3.23,0,3.7,3.7,0,0,1,1.19.81Z"/><path class="cls-1" d="M207.86,62.05a3.73,3.73,0,0,1,1.39.25,3.07,3.07,0,0,1,1.1.73,3.15,3.15,0,0,1,.73,1.17,4.33,4.33,0,0,1,.27,1.58,1,1,0,0,1-.08.47.32.32,0,0,1-.28.11h-5.58a4.64,4.64,0,0,0,.22,1.38,2.75,2.75,0,0,0,.54,1,2.11,2.11,0,0,0,.83.59,2.76,2.76,0,0,0,1.07.19,3.33,3.33,0,0,0,1-.12,4.68,4.68,0,0,0,.69-.28,4.74,4.74,0,0,0,.48-.28.67.67,0,0,1,.33-.12.3.3,0,0,1,.28.14l.42.53a3,3,0,0,1-.65.57,3.66,3.66,0,0,1-.82.4,4.5,4.5,0,0,1-.89.24,5.72,5.72,0,0,1-.92.08,4.36,4.36,0,0,1-1.59-.29,3.58,3.58,0,0,1-1.26-.86,3.89,3.89,0,0,1-.83-1.4,5.59,5.59,0,0,1-.3-1.91,4.81,4.81,0,0,1,.27-1.63,3.93,3.93,0,0,1,.77-1.32,3.62,3.62,0,0,1,1.23-.87A4.05,4.05,0,0,1,207.86,62.05Zm0,1.08a2.3,2.3,0,0,0-1.67.61,2.89,2.89,0,0,0-.76,1.71H210a2.81,2.81,0,0,0-.15-.94,1.89,1.89,0,0,0-.42-.73,1.72,1.72,0,0,0-.67-.48A2.29,2.29,0,0,0,207.89,63.13Z"/><path class="cls-2" d="M226.75,70.53h-1.6V65.16h-6.37v5.37h-1.6V58.72h1.6V64h6.37V58.72h1.6Z"/><path class="cls-2" d="M230.4,62.18v5.33a2.19,2.19,0,0,0,.43,1.46,1.61,1.61,0,0,0,1.32.52,2.52,2.52,0,0,0,1.21-.3,3.78,3.78,0,0,0,1-.85V62.18h1.47v8.35H235a.37.37,0,0,1-.39-.3l-.12-.9a4.7,4.7,0,0,1-1.22,1,3.22,3.22,0,0,1-1.55.36,3,3,0,0,1-1.2-.22,2.39,2.39,0,0,1-.88-.64,2.74,2.74,0,0,1-.53-1,4.37,4.37,0,0,1-.18-1.29V62.18Z"/><path class="cls-2" d="M237.94,70.53V58.39h1.48v5a4.23,4.23,0,0,1,1.18-1,3.21,3.21,0,0,1,1.54-.36,3,3,0,0,1,1.32.28,2.89,2.89,0,0,1,1,.81,4.08,4.08,0,0,1,.63,1.29,6.06,6.06,0,0,1,.22,1.71,6.32,6.32,0,0,1-.25,1.85,4.21,4.21,0,0,1-.71,1.42,3.15,3.15,0,0,1-1.14.91,3.31,3.31,0,0,1-1.5.33,2.87,2.87,0,0,1-1.38-.31,3.06,3.06,0,0,1-1-.88l-.07.76a.35.35,0,0,1-.38.31Zm3.71-7.31a2.31,2.31,0,0,0-1.25.33,3.43,3.43,0,0,0-1,.93v4a2.34,2.34,0,0,0,.88.77,2.48,2.48,0,0,0,1.06.22,2.14,2.14,0,0,0,1.81-.83,4.16,4.16,0,0,0,.62-2.48,3.7,3.7,0,0,0-.55-2.26A1.9,1.9,0,0,0,241.65,63.22Z"/><path class="cls-2" d="M253.07,60.57a.59.59,0,0,1-.17.18.33.33,0,0,1-.21.06.56.56,0,0,1-.33-.14c-.12-.09-.28-.19-.47-.31a4,4,0,0,0-.68-.3,3.36,3.36,0,0,0-1.92,0,2.13,2.13,0,0,0-.68.39,1.83,1.83,0,0,0-.42.58,2,2,0,0,0-.14.72,1.27,1.27,0,0,0,.25.82,2,2,0,0,0,.64.56,5.09,5.09,0,0,0,.91.4l1,.35c.35.12.7.26,1,.41a3.68,3.68,0,0,1,.91.57,2.58,2.58,0,0,1,.64.85,2.74,2.74,0,0,1,.25,1.24,3.89,3.89,0,0,1-.27,1.45,3.14,3.14,0,0,1-.77,1.18,3.68,3.68,0,0,1-1.24.8,4.62,4.62,0,0,1-1.68.28,5,5,0,0,1-2.09-.41,4.78,4.78,0,0,1-1.61-1.13l.46-.76a.57.57,0,0,1,.16-.15.37.37,0,0,1,.21-.06.45.45,0,0,1,.24.09,2.28,2.28,0,0,1,.31.22l.4.28a3.09,3.09,0,0,0,.51.29,3.39,3.39,0,0,0,1.46.31,2.86,2.86,0,0,0,1-.16,2.11,2.11,0,0,0,.76-.44,2,2,0,0,0,.47-.68,2.26,2.26,0,0,0,.17-.88,1.43,1.43,0,0,0-.25-.88,1.87,1.87,0,0,0-.64-.57,3.7,3.7,0,0,0-.9-.39l-1-.33c-.35-.12-.7-.25-1-.4a3.41,3.41,0,0,1-.91-.57,2.82,2.82,0,0,1-.64-.89,3.16,3.16,0,0,1-.24-1.31,3.23,3.23,0,0,1,.24-1.22,3.17,3.17,0,0,1,.71-1,3.38,3.38,0,0,1,1.15-.73,4.18,4.18,0,0,1,1.56-.27,4.93,4.93,0,0,1,1.8.31,4.21,4.21,0,0,1,1.43.91Z"/><path class="cls-2" d="M255.18,73.36V62.18h.88a.35.35,0,0,1,.38.31l.13,1a4.36,4.36,0,0,1,1.23-1,3.17,3.17,0,0,1,1.58-.4,3.1,3.1,0,0,1,1.31.28,2.71,2.71,0,0,1,1,.82,4,4,0,0,1,.63,1.34,6.75,6.75,0,0,1,.22,1.83A5.91,5.91,0,0,1,262.3,68a4.12,4.12,0,0,1-.72,1.38,3.23,3.23,0,0,1-1.13.91,3.3,3.3,0,0,1-1.52.34,3.09,3.09,0,0,1-1.31-.26,3,3,0,0,1-1-.72v3.69Zm3.72-10.14a2.37,2.37,0,0,0-1.26.33,3.6,3.6,0,0,0-1,.93v4a2.34,2.34,0,0,0,.88.77,2.51,2.51,0,0,0,1.08.22,2.13,2.13,0,0,0,1.79-.83A3.9,3.9,0,0,0,261,66.3a5.72,5.72,0,0,0-.15-1.4,2.65,2.65,0,0,0-.41-1,1.68,1.68,0,0,0-.67-.55A2.29,2.29,0,0,0,258.9,63.22Z"/><path class="cls-2" d="M267.67,62.05a4.15,4.15,0,0,1,1.65.31,3.45,3.45,0,0,1,1.25.86,3.83,3.83,0,0,1,.8,1.36,6,6,0,0,1,0,3.55,3.92,3.92,0,0,1-.8,1.36,3.45,3.45,0,0,1-1.25.86,4.33,4.33,0,0,1-1.65.3,4.38,4.38,0,0,1-1.66-.3,3.58,3.58,0,0,1-1.26-.86,3.9,3.9,0,0,1-.79-1.36,5.77,5.77,0,0,1,0-3.55,3.81,3.81,0,0,1,.79-1.36,3.58,3.58,0,0,1,1.26-.86A4.2,4.2,0,0,1,267.67,62.05Zm0,7.45a2.13,2.13,0,0,0,1.85-.83,4.7,4.7,0,0,0,0-4.63,2.14,2.14,0,0,0-1.85-.84,2.61,2.61,0,0,0-1.09.22,2,2,0,0,0-.78.62,2.83,2.83,0,0,0-.46,1,5.41,5.41,0,0,0-.15,1.33,3.87,3.87,0,0,0,.61,2.31A2.17,2.17,0,0,0,267.67,69.5Z"/><path class="cls-2" d="M275.65,70.66a2,2,0,0,1-1.52-.55,2.23,2.23,0,0,1-.53-1.59V63.41h-1a.33.33,0,0,1-.22-.08.3.3,0,0,1-.09-.24V62.5l1.37-.17.34-2.58a.33.33,0,0,1,.33-.28h.75v2.88h2.41v1.06h-2.41v5a1.09,1.09,0,0,0,.25.79.89.89,0,0,0,.66.25,1.2,1.2,0,0,0,.4-.06,1.57,1.57,0,0,0,.29-.14l.21-.13a.29.29,0,0,1,.16-.06.24.24,0,0,1,.2.14l.43.7a2.72,2.72,0,0,1-.92.55A2.94,2.94,0,0,1,275.65,70.66Z"/><path class="cls-1" d="M288.72,70.53a.36.36,0,0,1-.39-.3l-.13-1A4.36,4.36,0,0,1,287,70.26a3.14,3.14,0,0,1-1.58.39,3,3,0,0,1-1.3-.28,2.68,2.68,0,0,1-1-.81,4,4,0,0,1-.63-1.34,6.75,6.75,0,0,1-.22-1.83,5.91,5.91,0,0,1,.24-1.72,4.29,4.29,0,0,1,.71-1.38,3.29,3.29,0,0,1,1.14-.92,3.36,3.36,0,0,1,1.51-.34,3.06,3.06,0,0,1,1.31.26,3.3,3.3,0,0,1,1,.73V58.39h1.47V70.53Zm-2.85-1.07a2.38,2.38,0,0,0,1.27-.33,3.6,3.6,0,0,0,1-.93v-4a2.44,2.44,0,0,0-.89-.77,2.5,2.5,0,0,0-1.07-.22,2.11,2.11,0,0,0-1.79.83,3.9,3.9,0,0,0-.63,2.38,6.14,6.14,0,0,0,.14,1.39,2.66,2.66,0,0,0,.42,1,1.66,1.66,0,0,0,.66.55A2.37,2.37,0,0,0,285.87,69.46Z"/><path class="cls-1" d="M295.08,62.05a3.73,3.73,0,0,1,1.39.25,3.18,3.18,0,0,1,1.83,1.9,4.33,4.33,0,0,1,.27,1.58,1,1,0,0,1-.08.47.32.32,0,0,1-.28.11h-5.58a4.66,4.66,0,0,0,.21,1.38,2.93,2.93,0,0,0,.55,1,2.08,2.08,0,0,0,.82.59,2.83,2.83,0,0,0,1.07.19,3.4,3.4,0,0,0,1-.12,5.8,5.8,0,0,0,.69-.28,4.74,4.74,0,0,0,.48-.28.67.67,0,0,1,.33-.12.3.3,0,0,1,.28.14l.41.53a2.75,2.75,0,0,1-.65.57,3.4,3.4,0,0,1-.81.4,4.69,4.69,0,0,1-.89.24,5.82,5.82,0,0,1-.92.08,4.29,4.29,0,0,1-1.59-.29,3.71,3.71,0,0,1-1.27-.86,3.87,3.87,0,0,1-.82-1.4,5.59,5.59,0,0,1-.3-1.91,4.81,4.81,0,0,1,.27-1.63,3.77,3.77,0,0,1,.77-1.32,3.43,3.43,0,0,1,1.23-.87A4,4,0,0,1,295.08,62.05Zm0,1.08a2.27,2.27,0,0,0-1.67.61,2.89,2.89,0,0,0-.76,1.71h4.57a2.81,2.81,0,0,0-.15-.94,1.89,1.89,0,0,0-.42-.73,1.79,1.79,0,0,0-.67-.48A2.29,2.29,0,0,0,295.11,63.13Z"/><path class="cls-1" d="M298.94,62.18h1.2a.49.49,0,0,1,.3.09.42.42,0,0,1,.15.22l2.12,5.37c.07.21.12.4.17.6s.1.38.14.57c.05-.19.1-.38.14-.57a5.16,5.16,0,0,1,.19-.6l2.14-5.37a.5.5,0,0,1,.16-.22.45.45,0,0,1,.28-.09h1.14l-3.4,8.35h-1.32Z"/><path class="cls-1" d="M311.35,62.05a3.73,3.73,0,0,1,1.39.25,3.18,3.18,0,0,1,1.83,1.9,4.33,4.33,0,0,1,.27,1.58,1,1,0,0,1-.08.47.32.32,0,0,1-.28.11H308.9a4.34,4.34,0,0,0,.22,1.38,2.75,2.75,0,0,0,.54,1,2.15,2.15,0,0,0,.82.59,2.85,2.85,0,0,0,1.08.19,3.38,3.38,0,0,0,.95-.12,5.8,5.8,0,0,0,.69-.28,4.74,4.74,0,0,0,.48-.28.67.67,0,0,1,.33-.12.3.3,0,0,1,.28.14l.42.53a2.8,2.8,0,0,1-.66.57,3.4,3.4,0,0,1-.81.4,4.5,4.5,0,0,1-.89.24,5.82,5.82,0,0,1-.92.08,4.32,4.32,0,0,1-1.59-.29,3.58,3.58,0,0,1-1.26-.86,3.89,3.89,0,0,1-.83-1.4,5.59,5.59,0,0,1-.3-1.91,4.81,4.81,0,0,1,.27-1.63,3.77,3.77,0,0,1,.77-1.32,3.43,3.43,0,0,1,1.23-.87A4.05,4.05,0,0,1,311.35,62.05Zm0,1.08a2.28,2.28,0,0,0-1.67.61,2.89,2.89,0,0,0-.76,1.71h4.57a2.81,2.81,0,0,0-.15-.94,1.89,1.89,0,0,0-.42-.73,1.79,1.79,0,0,0-.67-.48A2.29,2.29,0,0,0,311.38,63.13Z"/><path class="cls-1" d="M317.89,58.39V70.53h-1.47V58.39Z"/><path class="cls-1" d="M323.52,62.05a4.15,4.15,0,0,1,1.65.31,3.63,3.63,0,0,1,1.25.86,3.81,3.81,0,0,1,.79,1.36,5.77,5.77,0,0,1,0,3.55,3.9,3.9,0,0,1-.79,1.36,3.63,3.63,0,0,1-1.25.86,4.72,4.72,0,0,1-3.31,0,3.41,3.41,0,0,1-1.26-.86,3.92,3.92,0,0,1-.8-1.36,6,6,0,0,1,0-3.55,3.83,3.83,0,0,1,.8-1.36,3.41,3.41,0,0,1,1.26-.86A4.16,4.16,0,0,1,323.52,62.05Zm0,7.45a2.11,2.11,0,0,0,1.84-.83,4.7,4.7,0,0,0,0-4.63,2.12,2.12,0,0,0-1.84-.84,2.66,2.66,0,0,0-1.1.22,2,2,0,0,0-.77.62,2.67,2.67,0,0,0-.46,1,5.41,5.41,0,0,0-.15,1.33,3.8,3.8,0,0,0,.61,2.31A2.16,2.16,0,0,0,323.52,69.5Z"/><path class="cls-1" d="M329.08,73.36V62.18H330a.36.36,0,0,1,.39.31l.12,1a4.36,4.36,0,0,1,1.23-1,3.17,3.17,0,0,1,1.58-.4,3.07,3.07,0,0,1,1.31.28,2.63,2.63,0,0,1,1,.82,3.8,3.8,0,0,1,.64,1.34,6.75,6.75,0,0,1,.22,1.83A5.59,5.59,0,0,1,336.2,68a4.1,4.1,0,0,1-.71,1.38,3.35,3.35,0,0,1-2.65,1.25,3.14,3.14,0,0,1-1.32-.26,3,3,0,0,1-1-.72v3.69Zm3.73-10.14a2.37,2.37,0,0,0-1.26.33,3.6,3.6,0,0,0-1,.93v4a2.31,2.31,0,0,0,.87.77,2.51,2.51,0,0,0,1.08.22,2.13,2.13,0,0,0,1.8-.83,4,4,0,0,0,.62-2.38,6.3,6.3,0,0,0-.14-1.4,2.84,2.84,0,0,0-.42-1,1.62,1.62,0,0,0-.67-.55A2.28,2.28,0,0,0,332.81,63.22Z"/><path class="cls-1" d="M338.06,70.53V62.18h.88a.36.36,0,0,1,.39.31l.1.85a4.79,4.79,0,0,1,1-.93,2.49,2.49,0,0,1,1.34-.36,2,2,0,0,1,1.36.47,2.6,2.6,0,0,1,.75,1.27,3,3,0,0,1,.47-.78,2.79,2.79,0,0,1,.64-.55,3,3,0,0,1,.75-.31,3.23,3.23,0,0,1,.82-.1,3.05,3.05,0,0,1,1.17.21,2.27,2.27,0,0,1,.87.62,2.57,2.57,0,0,1,.55,1,4.27,4.27,0,0,1,.19,1.35v5.31h-1.47V65.22a2.28,2.28,0,0,0-.43-1.49,1.54,1.54,0,0,0-1.24-.51,1.8,1.8,0,0,0-.69.13,1.65,1.65,0,0,0-.57.37,2,2,0,0,0-.39.63,2.33,2.33,0,0,0-.15.87v5.31H343V65.22a2.33,2.33,0,0,0-.41-1.5,1.41,1.41,0,0,0-1.17-.5,1.89,1.89,0,0,0-1,.29,3.35,3.35,0,0,0-.85.8v6.22Z"/><path class="cls-1" d="M354.77,62.05a3.7,3.7,0,0,1,1.39.25,3.11,3.11,0,0,1,1.11.73A3.28,3.28,0,0,1,358,64.2a4.55,4.55,0,0,1,.26,1.58,1.14,1.14,0,0,1-.07.47.33.33,0,0,1-.28.11h-5.59a5,5,0,0,0,.22,1.38,2.75,2.75,0,0,0,.54,1,2.11,2.11,0,0,0,.83.59,2.8,2.8,0,0,0,1.07.19,3.33,3.33,0,0,0,.95-.12,4.68,4.68,0,0,0,.69-.28,4.74,4.74,0,0,0,.48-.28.67.67,0,0,1,.33-.12.32.32,0,0,1,.29.14l.41.53a2.75,2.75,0,0,1-.65.57,3.66,3.66,0,0,1-.82.4,4.32,4.32,0,0,1-.89.24,5.72,5.72,0,0,1-.92.08,4.36,4.36,0,0,1-1.59-.29A3.58,3.58,0,0,1,352,69.5a3.89,3.89,0,0,1-.83-1.4,5.59,5.59,0,0,1-.3-1.91,4.81,4.81,0,0,1,.27-1.63,3.93,3.93,0,0,1,.77-1.32,3.62,3.62,0,0,1,1.23-.87A4.05,4.05,0,0,1,354.77,62.05Zm0,1.08a2.31,2.31,0,0,0-1.68.61,3,3,0,0,0-.76,1.71h4.57a3.09,3.09,0,0,0-.14-.94,2.18,2.18,0,0,0-.42-.73,1.83,1.83,0,0,0-.68-.48A2.28,2.28,0,0,0,354.81,63.13Z"/><path class="cls-1" d="M359.79,70.53V62.18h.89a.36.36,0,0,1,.38.31l.12.9a4.7,4.7,0,0,1,1.22-1,3.16,3.16,0,0,1,1.56-.37,3,3,0,0,1,1.2.23,2.36,2.36,0,0,1,.88.64,2.9,2.9,0,0,1,.53,1,4.39,4.39,0,0,1,.18,1.3v5.31h-1.48V65.22a2.25,2.25,0,0,0-.43-1.48,1.64,1.64,0,0,0-1.31-.52,2.61,2.61,0,0,0-1.23.31,4.09,4.09,0,0,0-1,.85v6.15Z"/><path class="cls-1" d="M371.18,70.66a2,2,0,0,1-1.52-.55,2.19,2.19,0,0,1-.54-1.59V63.41h-1a.33.33,0,0,1-.22-.08.3.3,0,0,1-.1-.24V62.5l1.37-.17.34-2.58a.33.33,0,0,1,.34-.28h.74v2.88H373v1.06h-2.42v5a1.09,1.09,0,0,0,.26.79.89.89,0,0,0,.66.25,1.25,1.25,0,0,0,.4-.06,1.57,1.57,0,0,0,.29-.14l.21-.13a.29.29,0,0,1,.15-.06.24.24,0,0,1,.21.14l.43.7a2.82,2.82,0,0,1-.92.55A3,3,0,0,1,371.18,70.66Z"/><path class="cls-1" d="M378.76,70.53V63.44l-.92-.11a.78.78,0,0,1-.29-.13.31.31,0,0,1-.11-.25v-.6h1.32v-.81a3.8,3.8,0,0,1,.2-1.27,2.62,2.62,0,0,1,.58-.94,2.37,2.37,0,0,1,.9-.58,3.2,3.2,0,0,1,1.19-.2,3.09,3.09,0,0,1,1,.16l0,.74a.22.22,0,0,1-.22.21l-.54,0a2.13,2.13,0,0,0-.69.1,1.2,1.2,0,0,0-.53.32,1.45,1.45,0,0,0-.35.58,2.91,2.91,0,0,0-.11.9v.77h2.4v1.06h-2.36v7.12Z"/><path class="cls-1" d="M383.73,70.53V62.18h.84a.47.47,0,0,1,.33.09.56.56,0,0,1,.12.32l.09,1.27a3.7,3.7,0,0,1,1-1.34,2.25,2.25,0,0,1,1.92-.43,1.39,1.39,0,0,1,.43.18l-.1,1.1a.25.25,0,0,1-.25.21,2,2,0,0,1-.34,0,1.93,1.93,0,0,0-.5-.05,2,2,0,0,0-.71.12,1.79,1.79,0,0,0-.56.34,2.51,2.51,0,0,0-.43.56,4.93,4.93,0,0,0-.34.76v5.27Z"/><path class="cls-1" d="M394.64,70.53a.62.62,0,0,1-.33-.07.53.53,0,0,1-.18-.27L394,69.4a7.23,7.23,0,0,1-.65.53,3.75,3.75,0,0,1-.66.4,3.49,3.49,0,0,1-.73.25,3.9,3.9,0,0,1-.87.08,3.05,3.05,0,0,1-.92-.13,2.14,2.14,0,0,1-.74-.41,2,2,0,0,1-.51-.69,2.45,2.45,0,0,1-.18-1,1.83,1.83,0,0,1,.27-1,2.42,2.42,0,0,1,.88-.82,6,6,0,0,1,1.59-.58,12.16,12.16,0,0,1,2.41-.26v-.65a2.22,2.22,0,0,0-.42-1.47,1.53,1.53,0,0,0-1.23-.5,2.68,2.68,0,0,0-.91.14,3.37,3.37,0,0,0-.63.3l-.47.31a.62.62,0,0,1-.38.13.36.36,0,0,1-.25-.08.58.58,0,0,1-.19-.19l-.26-.47a4.88,4.88,0,0,1,1.49-1,4.66,4.66,0,0,1,1.78-.33,3.22,3.22,0,0,1,1.24.23,2.52,2.52,0,0,1,.91.65,2.73,2.73,0,0,1,.57,1,4.3,4.3,0,0,1,.18,1.28v5.34Zm-3.15-.9a3.11,3.11,0,0,0,.71-.07,3,3,0,0,0,.61-.23,2.62,2.62,0,0,0,.54-.35,3.82,3.82,0,0,0,.51-.48V66.77a14.66,14.66,0,0,0-1.73.16,5.06,5.06,0,0,0-1.16.34,1.64,1.64,0,0,0-.65.48,1.1,1.1,0,0,0-.2.63,1.42,1.42,0,0,0,.1.57,1.07,1.07,0,0,0,.3.39,1.1,1.1,0,0,0,.43.22A1.9,1.9,0,0,0,391.49,69.63Z"/><path class="cls-1" d="M397.26,70.53V62.18h.89a.35.35,0,0,1,.38.31l.11.85a4.57,4.57,0,0,1,1-.93,2.45,2.45,0,0,1,1.33-.36,2,2,0,0,1,1.37.47,2.6,2.6,0,0,1,.75,1.27,2.75,2.75,0,0,1,.47-.78,2.79,2.79,0,0,1,.64-.55,2.9,2.9,0,0,1,.75-.31,3.21,3.21,0,0,1,.81-.1,3.1,3.1,0,0,1,1.18.21,2.35,2.35,0,0,1,.87.62,2.71,2.71,0,0,1,.55,1,4.27,4.27,0,0,1,.19,1.35v5.31h-1.48V65.22a2.28,2.28,0,0,0-.42-1.49,1.54,1.54,0,0,0-1.24-.51,1.8,1.8,0,0,0-.69.13,1.56,1.56,0,0,0-.57.37,1.68,1.68,0,0,0-.39.63,2.33,2.33,0,0,0-.15.87v5.31h-1.47V65.22a2.33,2.33,0,0,0-.41-1.5,1.43,1.43,0,0,0-1.18-.5,1.88,1.88,0,0,0-1,.29,3.35,3.35,0,0,0-.85.8v6.22Z"/><path class="cls-1" d="M414,62.05a3.73,3.73,0,0,1,1.39.25,3.07,3.07,0,0,1,1.1.73,3.15,3.15,0,0,1,.73,1.17,4.33,4.33,0,0,1,.27,1.58,1,1,0,0,1-.08.47.32.32,0,0,1-.28.11h-5.58a4.64,4.64,0,0,0,.22,1.38,2.75,2.75,0,0,0,.54,1,2.11,2.11,0,0,0,.83.59,2.76,2.76,0,0,0,1.07.19,3.33,3.33,0,0,0,.95-.12,4.68,4.68,0,0,0,.69-.28,4.74,4.74,0,0,0,.48-.28.67.67,0,0,1,.33-.12.3.3,0,0,1,.28.14l.42.53a2.8,2.8,0,0,1-.66.57,3.4,3.4,0,0,1-.81.4,4.5,4.5,0,0,1-.89.24,5.72,5.72,0,0,1-.92.08,4.32,4.32,0,0,1-1.59-.29,3.58,3.58,0,0,1-1.26-.86,3.89,3.89,0,0,1-.83-1.4,5.59,5.59,0,0,1-.3-1.91,4.81,4.81,0,0,1,.27-1.63,3.93,3.93,0,0,1,.77-1.32,3.62,3.62,0,0,1,1.23-.87A4.05,4.05,0,0,1,414,62.05Zm0,1.08a2.28,2.28,0,0,0-1.67.61,2.89,2.89,0,0,0-.76,1.71h4.57a2.81,2.81,0,0,0-.15-.94,1.89,1.89,0,0,0-.42-.73,1.72,1.72,0,0,0-.67-.48A2.29,2.29,0,0,0,414,63.13Z"/><path class="cls-1" d="M418,62.18h1.16a.48.48,0,0,1,.29.09.44.44,0,0,1,.16.22l1.6,5.37.12.57c0,.18.07.36.1.54.05-.18.09-.36.15-.54s.11-.38.17-.57l1.77-5.41a.35.35,0,0,1,.14-.2.36.36,0,0,1,.25-.08h.64a.42.42,0,0,1,.43.28l1.72,5.41.15.57c.05.19.1.37.14.55,0-.18.07-.36.12-.55s.08-.37.13-.57l1.63-5.37a.46.46,0,0,1,.43-.31h1.11l-2.71,8.35h-1.16c-.14,0-.24-.09-.3-.28l-1.84-5.66a2.72,2.72,0,0,1-.11-.38c0-.13-.05-.26-.08-.39l-.09.39c0,.13-.06.26-.1.39l-1.88,5.65a.32.32,0,0,1-.33.28h-1.1Z"/><path class="cls-1" d="M435,62.05a4.15,4.15,0,0,1,1.65.31,3.45,3.45,0,0,1,1.25.86,3.83,3.83,0,0,1,.8,1.36,6,6,0,0,1,0,3.55,3.92,3.92,0,0,1-.8,1.36,3.45,3.45,0,0,1-1.25.86,4.33,4.33,0,0,1-1.65.3,4.38,4.38,0,0,1-1.66-.3,3.58,3.58,0,0,1-1.26-.86,3.9,3.9,0,0,1-.79-1.36,5.77,5.77,0,0,1,0-3.55,3.81,3.81,0,0,1,.79-1.36,3.58,3.58,0,0,1,1.26-.86A4.2,4.2,0,0,1,435,62.05Zm0,7.45a2.13,2.13,0,0,0,1.85-.83,4.7,4.7,0,0,0,0-4.63A2.14,2.14,0,0,0,435,63.2a2.61,2.61,0,0,0-1.09.22,2,2,0,0,0-.77.62,2.84,2.84,0,0,0-.47,1,5.41,5.41,0,0,0-.15,1.33,3.8,3.8,0,0,0,.62,2.31A2.14,2.14,0,0,0,435,69.5Z"/><path class="cls-1" d="M440.56,70.53V62.18h.84a.47.47,0,0,1,.33.09.56.56,0,0,1,.12.32l.09,1.27a3.59,3.59,0,0,1,1-1.34,2.25,2.25,0,0,1,1.92-.43,1.5,1.5,0,0,1,.43.18l-.11,1.1a.23.23,0,0,1-.24.21,2,2,0,0,1-.34,0,2.3,2.3,0,0,0-1.21.07,1.68,1.68,0,0,0-.56.34,2.25,2.25,0,0,0-.43.56,4.92,4.92,0,0,0-.35.76v5.27Z"/><path class="cls-1" d="M447.77,58.39v7.15h.38a.68.68,0,0,0,.27-.05.63.63,0,0,0,.24-.18l2.64-2.83a.83.83,0,0,1,.24-.22.66.66,0,0,1,.34-.08h1.33l-3.08,3.28a1.72,1.72,0,0,1-.47.43,1.86,1.86,0,0,1,.26.23,1.73,1.73,0,0,1,.23.29l3.26,4.12H452.1a.79.79,0,0,1-.32-.06.58.58,0,0,1-.24-.23l-2.74-3.42a.6.6,0,0,0-.24-.22.89.89,0,0,0-.37-.06h-.42v4h-1.48V58.39Z"/><rect class="cls-2" x="15.46" y="16.85" width="75.86" height="59.91"/><rect class="cls-3" x="28.48" y="46.56" width="4.83" height="13.05" rx="1.58"/><rect class="cls-3" x="34.93" y="30.62" width="6.76" height="32.37" rx="1.58"/><rect class="cls-3" x="43.32" y="35.45" width="3.87" height="8.21" rx="1.58"/><rect class="cls-3" x="48.8" y="30.62" width="6.76" height="32.37" rx="1.58"/><rect class="cls-3" x="57.19" y="46.56" width="6.76" height="12.56" rx="1.58"/><rect class="cls-3" x="65.58" y="30.62" width="6.76" height="32.37" rx="1.58"/><rect class="cls-3" x="73.97" y="35.93" width="4.35" height="6.76" rx="1.58"/></svg>